<svg width="30" height="40" viewBox="0 0 30 40" fill="none" xmlns="http://www.w3.org/2000/svg">
<path d="M15 0C9.83063 0 5.625 4.486 5.625 10V16H3.75C2.75544 16 1.80161 16.4214 1.09835 17.1716C0.395088 17.9217 0 18.9391 0 20V36C0 37.0609 0.395088 38.0783 1.09835 38.8284C1.80161 39.5786 2.75544 40 3.75 40H26.25C27.2446 40 28.1984 39.5786 28.9016 38.8284C29.6049 38.0783 30 37.0609 30 36V20C30 18.9391 29.6049 17.9217 28.9016 17.1716C28.1984 16.4214 27.2446 16 26.25 16H24.375V10C24.375 4.486 20.1694 0 15 0ZM9.375 10C9.375 6.692 11.8987 4 15 4C18.1013 4 20.625 6.692 20.625 10V16H9.375V10ZM16.875 31.446V36H13.125V31.446C12.4695 31.0456 11.9431 30.4427 11.6153 29.7167C11.2875 28.9908 11.1737 28.1759 11.2888 27.3795C11.4039 26.5832 11.7426 25.8428 12.2602 25.2559C12.7778 24.669 13.45 24.2632 14.1881 24.092C14.7364 23.9623 15.3051 23.9656 15.852 24.1017C16.399 24.2379 16.9103 24.5033 17.3482 24.8784C17.7861 25.2535 18.1394 25.7288 18.382 26.2691C18.6246 26.8094 18.7504 27.4009 18.75 28C18.7489 28.6995 18.575 29.3863 18.2459 29.9913C17.9167 30.5963 17.4439 31.098 16.875 31.446Z" fill="#1E1E1E"/>
</svg>
