<svg width="30" height="40" viewBox="0 0 30 40" fill="none" xmlns="http://www.w3.org/2000/svg">
<path fill-rule="evenodd" clip-rule="evenodd" d="M4.28571 10.537C4.28211 7.97339 5.23161 5.49664 6.95589 3.5719C8.68017 1.64715 11.0606 0.406836 13.6502 0.0838634C16.2398 -0.23911 18.8603 0.377482 21.0197 1.81785C23.1791 3.25821 24.7289 5.42326 25.3779 7.90641C25.5199 8.44697 25.4375 9.02083 25.1488 9.50174C24.8601 9.98264 24.3886 10.3312 23.8382 10.4707C23.2878 10.6103 22.7035 10.5294 22.2138 10.2458C21.7241 9.96222 21.3692 9.49922 21.2271 8.95866C20.8381 7.46838 19.9083 6.16891 18.6126 5.30436C17.3168 4.4398 15.7442 4.06966 14.1901 4.26348C12.6361 4.45729 11.2076 5.20172 10.173 6.35691C9.13837 7.5121 8.56886 8.99856 8.57143 10.537V16.8505H26.5714C28.4571 16.8505 30 18.3658 30 20.2177V34.9492C30 37.7271 27.6857 40 24.8571 40H5.14286C2.31429 40 0 37.7271 0 34.9492V20.2177C0 18.3658 1.54286 16.8505 3.42857 16.8505H4.28571V10.537ZM15 21.5856C14.1479 21.5848 13.3208 21.869 12.6551 22.3914C11.9894 22.9138 11.5248 23.6433 11.3376 24.4598C11.1505 25.2762 11.2521 26.1309 11.6257 26.8831C11.9992 27.6353 12.6225 28.24 13.3929 28.5978V33.6865C13.3929 34.1051 13.5622 34.5066 13.8636 34.8026C14.165 35.0986 14.5738 35.2649 15 35.2649C15.4262 35.2649 15.835 35.0986 16.1364 34.8026C16.4378 34.5066 16.6071 34.1051 16.6071 33.6865V28.5978C17.3775 28.24 18.0007 27.6353 18.3743 26.8831C18.7479 26.1309 18.8495 25.2762 18.6624 24.4598C18.4752 23.6433 18.0106 22.9138 17.3449 22.3914C16.6792 21.869 15.8521 21.5848 15 21.5856Z" fill="#1E1E1E"/>
</svg>
